<svg xmlns="http://www.w3.org/2000/svg" width="500" height="500" viewBox="0 0 500 500" version="1.1"><path d="M 55 193.051 L 55 198.102 58.250 195.641 C 62.374 192.517, 69.629 190.305, 78.250 189.542 L 85 188.944 85 232.972 L 85 277 90 277 L 95 277 95 233.015 L 95 189.031 101.250 189.603 C 109.544 190.364, 117.096 192.501, 120.250 194.982 C 121.661 196.092, 123.082 197, 123.408 197 C 123.733 197, 124 194.975, 124 192.500 L 124 188 89.500 188 L 55 188 55 193.051 M 169 189.098 C 156.694 191.501, 143.624 201.716, 138.132 213.223 C 129.525 231.258, 133.151 251.110, 147.658 265.370 C 155.793 273.367, 165.454 277.158, 177.476 277.072 C 189.656 276.985, 198.525 273.709, 207.136 266.118 C 225.964 249.519, 227.009 221.085, 209.486 202.158 C 198.910 190.735, 184.469 186.077, 169 189.098 M 275 232.500 L 275 277 291.750 276.988 C 314.819 276.972, 323.931 274.164, 334.181 263.914 C 355.197 242.899, 349.224 206.594, 322.591 193.453 C 318.013 191.195, 313.551 189.795, 310 189.503 C 304.538 189.054, 304.530 189.057, 308.853 189.991 C 328.213 194.172, 341.437 219.102, 336.673 242.435 C 334.575 252.712, 330.802 260.294, 324.795 266.300 C 317.202 273.893, 312.902 275.379, 297.239 275.822 L 283.979 276.197 284.239 232.848 L 284.500 189.500 294.500 188.944 C 304.218 188.403, 304.084 188.382, 289.750 188.194 L 275 188 275 232.500 M 390.112 189.581 C 369.833 195.034, 355.935 212.721, 356.024 232.960 C 356.112 252.895, 369.843 270.812, 389.017 276.013 C 395.856 277.869, 406.871 277.402, 414.154 274.948 C 442.908 265.261, 453.674 230.773, 435.599 206.249 C 424.861 191.679, 406.850 185.079, 390.112 189.581 M 164.718 191.386 C 151.218 196.384, 143.855 208.846, 143.674 227 C 143.515 242.958, 149.251 256.524, 160.568 266.956 C 167.216 273.084, 173.026 275.440, 181.571 275.473 C 195.234 275.525, 205.684 267.183, 210.147 252.660 C 212.913 243.661, 212.420 227.489, 209.118 218.895 C 204.778 207.599, 195.974 197.117, 187.250 192.861 C 181.426 190.019, 170.366 189.295, 164.718 191.386 M 386.027 191.677 C 383.422 192.631, 379.415 195.455, 376.431 198.439 C 369.999 204.871, 366.998 212.325, 366.257 223.708 C 363.770 261.948, 399.044 289.848, 422.836 268.458 C 443.276 250.080, 436.475 207.462, 410.878 193.530 C 404.227 189.910, 393.112 189.081, 386.027 191.677 M 231 234 L 231 237 248.500 237 L 266 237 266 234 L 266 231 248.500 231 L 231 231 231 234 M 195 304 C 193.333 304.534, 193.083 304.834, 194.250 304.900 C 195.842 304.991, 196 306.487, 196 321.427 C 196 336.230, 195.827 337.899, 194.250 338.311 C 193.287 338.562, 195.200 338.759, 198.500 338.748 C 201.800 338.737, 203.488 338.533, 202.250 338.294 C 200.019 337.865, 200 337.711, 200 320.430 C 200 301.866, 200.148 302.351, 195 304 M 167 304.851 C 167 305.483, 167.675 306, 168.500 306 C 169.771 306, 170 308.437, 170 321.930 C 170 337.656, 169.971 337.866, 167.750 338.294 C 166.512 338.533, 168.650 338.721, 172.500 338.714 C 176.350 338.706, 178.242 338.511, 176.704 338.279 C 173.951 337.865, 173.913 337.764, 174.204 331.679 L 174.500 325.500 179.500 324.911 C 186.123 324.131, 187.792 323.302, 189.537 319.928 C 192.117 314.939, 190.787 309.401, 186.302 306.462 C 183.290 304.488, 167 303.129, 167 304.851 M 174 315 L 174 324 177.545 324 C 182.714 324, 186 320.393, 186 314.720 C 186 309.122, 183.024 306, 177.686 306 L 174 306 174 315 M 210.939 317.061 C 208.639 319.361, 208.672 323.500, 210.990 323.500 C 211.850 323.500, 212.696 322.275, 212.990 320.607 C 213.271 319.016, 214.316 317.216, 215.313 316.607 C 216.792 315.704, 217.491 315.946, 219.113 317.923 C 221.736 321.120, 221.359 326.456, 218.500 326.602 C 217.400 326.658, 215.467 326.771, 214.205 326.852 C 211.386 327.034, 207 331.242, 207 333.763 C 207 336.462, 209.108 338.796, 212.225 339.547 C 214.408 340.073, 215.537 339.616, 217.904 337.250 C 220.837 334.317, 220.862 334.312, 221.420 336.538 C 222.530 340.961, 229.066 340.245, 228.937 335.715 C 228.875 333.556, 228.849 333.562, 227.906 335.920 C 226.300 339.937, 225.206 337.056, 224.842 327.854 C 224.574 321.083, 224.087 318.752, 222.595 317.104 C 220.020 314.260, 213.763 314.237, 210.939 317.061 M 234.250 316.080 C 235.739 316.947, 236 318.648, 236 327.476 C 236 336.518, 235.775 337.912, 234.250 338.311 C 233.287 338.562, 234.975 338.768, 238 338.768 C 241.025 338.768, 242.713 338.562, 241.750 338.311 C 240.304 337.933, 240 336.695, 240.002 331.177 C 240.003 323.228, 242.307 317.669, 245.805 317.173 C 250.122 316.561, 251 318.485, 251 328.549 C 251 336.569, 250.759 337.916, 249.250 338.311 C 248.287 338.562, 249.975 338.768, 253 338.768 C 256.025 338.768, 257.712 338.562, 256.750 338.311 C 255.239 337.916, 255 336.564, 255 328.427 C 255 320.333, 254.717 318.717, 253 317 C 249.473 313.473, 243.796 314.671, 241.155 319.500 C 240.175 321.291, 240.058 321.161, 240.030 318.250 C 240.002 315.161, 239.814 315.002, 236.250 315.030 C 233.217 315.055, 232.835 315.256, 234.250 316.080 M 264.250 316.080 C 265.739 316.947, 266 318.649, 266 327.480 C 266 337.450, 265.911 337.878, 263.750 338.294 C 262.512 338.533, 263.975 338.753, 267 338.785 C 270.025 338.816, 271.938 338.615, 271.250 338.338 C 270.413 338, 270.001 335.467, 270.004 330.667 C 270.008 322.075, 272.402 317, 276.450 317 C 280.011 317, 281 319.686, 281 329.361 C 281 336.608, 280.743 337.920, 279.250 338.311 C 278.288 338.562, 279.975 338.768, 283 338.768 C 286.025 338.768, 287.712 338.562, 286.750 338.311 C 285.251 337.919, 285 336.594, 285 329.062 C 285 318.473, 283.148 315, 277.500 315 C 275.067 315, 273.576 315.724, 272.073 317.635 L 270 320.270 270 317.635 C 270 315.251, 269.642 315.003, 266.250 315.030 C 263.217 315.055, 262.835 315.256, 264.250 316.080 M 296.659 317.054 C 293.479 319.555, 291.516 325.605, 292.383 330.228 C 293.326 335.257, 298.140 339.455, 302.962 339.455 C 307.047 339.455, 311 336.875, 311 334.210 C 311 333.275, 310.237 333.700, 308.927 335.365 C 307.414 337.290, 305.937 338, 303.450 338 C 299.653 338, 297.673 335.786, 296.519 330.250 L 295.841 327 303.421 327 L 311 327 311 323.174 C 311 315.846, 302.698 312.303, 296.659 317.054 M 318.250 316.080 C 319.739 316.947, 320 318.648, 320 327.476 C 320 336.518, 319.775 337.912, 318.250 338.311 C 317.288 338.562, 319.200 338.759, 322.500 338.748 C 325.800 338.737, 327.439 338.526, 326.143 338.280 C 323.857 337.846, 323.793 337.569, 324.045 329.166 C 324.481 314.649, 324.574 314.995, 320.250 315.030 C 317.217 315.055, 316.835 315.256, 318.250 316.080 M 326.494 317.006 C 325.496 318.110, 324.912 319.245, 325.197 319.530 C 325.482 319.815, 326.284 319.362, 326.980 318.524 C 329.059 316.019, 330.850 316.754, 331.187 320.250 C 331.548 323.995, 334.315 324.798, 334.813 321.302 C 335.604 315.740, 330.177 312.937, 326.494 317.006 M 299.092 318.131 C 297.942 319.366, 297 321.642, 297 323.189 C 297 325.890, 297.192 326, 301.933 326 C 307.629 326, 309.069 324.009, 306.803 319.266 C 305.108 315.718, 301.795 315.231, 299.092 318.131 M 212.655 329.829 C 210.406 332.314, 210.571 335.700, 213.007 337.004 C 214.651 337.884, 215.463 337.628, 217.507 335.584 C 218.878 334.213, 220 331.945, 220 330.545 C 220 328.415, 219.537 328, 217.155 328 C 215.590 328, 213.565 328.823, 212.655 329.829" stroke="none" fill="#517152" fill-rule="evenodd"/><path d="M 0 250.002 L 0 500.004 250.250 499.752 L 500.500 499.500 500.752 249.750 L 501.004 0 250.502 0 L 0 0 0 250.002 M 0.492 250.500 C 0.492 388, 0.608 444.101, 0.750 375.170 C 0.892 306.238, 0.892 193.738, 0.750 125.170 C 0.608 56.601, 0.492 113, 0.492 250.500 M 55 193.051 L 55 198.102 58.250 195.641 C 62.374 192.517, 69.629 190.305, 78.250 189.542 L 85 188.944 85 232.972 L 85 277 90 277 L 95 277 95 233.015 L 95 189.031 101.250 189.603 C 109.544 190.364, 117.096 192.501, 120.250 194.982 C 121.661 196.092, 123.082 197, 123.408 197 C 123.733 197, 124 194.975, 124 192.500 L 124 188 89.500 188 L 55 188 55 193.051 M 169 189.098 C 156.694 191.501, 143.624 201.716, 138.132 213.223 C 129.525 231.258, 133.151 251.110, 147.658 265.370 C 155.793 273.367, 165.454 277.158, 177.476 277.072 C 189.656 276.985, 198.525 273.709, 207.136 266.118 C 225.964 249.519, 227.009 221.085, 209.486 202.158 C 198.910 190.735, 184.469 186.077, 169 189.098 M 275 232.500 L 275 277 291.750 276.988 C 314.819 276.972, 323.931 274.164, 334.181 263.914 C 355.197 242.899, 349.224 206.594, 322.591 193.453 C 318.013 191.195, 313.551 189.795, 310 189.503 C 304.538 189.054, 304.530 189.057, 308.853 189.991 C 328.213 194.172, 341.437 219.102, 336.673 242.435 C 334.575 252.712, 330.802 260.294, 324.795 266.300 C 317.202 273.893, 312.902 275.379, 297.239 275.822 L 283.979 276.197 284.239 232.848 L 284.500 189.500 294.500 188.944 C 304.218 188.403, 304.084 188.382, 289.750 188.194 L 275 188 275 232.500 M 390.112 189.581 C 369.833 195.034, 355.935 212.721, 356.024 232.960 C 356.112 252.895, 369.843 270.812, 389.017 276.013 C 395.856 277.869, 406.871 277.402, 414.154 274.948 C 442.908 265.261, 453.674 230.773, 435.599 206.249 C 424.861 191.679, 406.850 185.079, 390.112 189.581 M 164.718 191.386 C 151.218 196.384, 143.855 208.846, 143.674 227 C 143.515 242.958, 149.251 256.524, 160.568 266.956 C 167.216 273.084, 173.026 275.440, 181.571 275.473 C 195.234 275.525, 205.684 267.183, 210.147 252.660 C 212.913 243.661, 212.420 227.489, 209.118 218.895 C 204.778 207.599, 195.974 197.117, 187.250 192.861 C 181.426 190.019, 170.366 189.295, 164.718 191.386 M 386.027 191.677 C 383.422 192.631, 379.415 195.455, 376.431 198.439 C 369.999 204.871, 366.998 212.325, 366.257 223.708 C 363.770 261.948, 399.044 289.848, 422.836 268.458 C 443.276 250.080, 436.475 207.462, 410.878 193.530 C 404.227 189.910, 393.112 189.081, 386.027 191.677 M 231 234 L 231 237 248.500 237 L 266 237 266 234 L 266 231 248.500 231 L 231 231 231 234 M 195 304 C 193.333 304.534, 193.083 304.834, 194.250 304.900 C 195.842 304.991, 196 306.487, 196 321.427 C 196 336.230, 195.827 337.899, 194.250 338.311 C 193.287 338.562, 195.200 338.759, 198.500 338.748 C 201.800 338.737, 203.488 338.533, 202.250 338.294 C 200.019 337.865, 200 337.711, 200 320.430 C 200 301.866, 200.148 302.351, 195 304 M 167 304.851 C 167 305.483, 167.675 306, 168.500 306 C 169.771 306, 170 308.437, 170 321.930 C 170 337.656, 169.971 337.866, 167.750 338.294 C 166.512 338.533, 168.650 338.721, 172.500 338.714 C 176.350 338.706, 178.242 338.511, 176.704 338.279 C 173.951 337.865, 173.913 337.764, 174.204 331.679 L 174.500 325.500 179.500 324.911 C 186.123 324.131, 187.792 323.302, 189.537 319.928 C 192.117 314.939, 190.787 309.401, 186.302 306.462 C 183.290 304.488, 167 303.129, 167 304.851 M 174 315 L 174 324 177.545 324 C 182.714 324, 186 320.393, 186 314.720 C 186 309.122, 183.024 306, 177.686 306 L 174 306 174 315 M 210.939 317.061 C 208.639 319.361, 208.672 323.500, 210.990 323.500 C 211.850 323.500, 212.696 322.275, 212.990 320.607 C 213.271 319.016, 214.316 317.216, 215.313 316.607 C 216.792 315.704, 217.491 315.946, 219.113 317.923 C 221.736 321.120, 221.359 326.456, 218.500 326.602 C 217.400 326.658, 215.467 326.771, 214.205 326.852 C 211.386 327.034, 207 331.242, 207 333.763 C 207 336.462, 209.108 338.796, 212.225 339.547 C 214.408 340.073, 215.537 339.616, 217.904 337.250 C 220.837 334.317, 220.862 334.312, 221.420 336.538 C 222.530 340.961, 229.066 340.245, 228.937 335.715 C 228.875 333.556, 228.849 333.562, 227.906 335.920 C 226.300 339.937, 225.206 337.056, 224.842 327.854 C 224.574 321.083, 224.087 318.752, 222.595 317.104 C 220.020 314.260, 213.763 314.237, 210.939 317.061 M 234.250 316.080 C 235.739 316.947, 236 318.648, 236 327.476 C 236 336.518, 235.775 337.912, 234.250 338.311 C 233.287 338.562, 234.975 338.768, 238 338.768 C 241.025 338.768, 242.713 338.562, 241.750 338.311 C 240.304 337.933, 240 336.695, 240.002 331.177 C 240.003 323.228, 242.307 317.669, 245.805 317.173 C 250.122 316.561, 251 318.485, 251 328.549 C 251 336.569, 250.759 337.916, 249.250 338.311 C 248.287 338.562, 249.975 338.768, 253 338.768 C 256.025 338.768, 257.712 338.562, 256.750 338.311 C 255.239 337.916, 255 336.564, 255 328.427 C 255 320.333, 254.717 318.717, 253 317 C 249.473 313.473, 243.796 314.671, 241.155 319.500 C 240.175 321.291, 240.058 321.161, 240.030 318.250 C 240.002 315.161, 239.814 315.002, 236.250 315.030 C 233.217 315.055, 232.835 315.256, 234.250 316.080 M 264.250 316.080 C 265.739 316.947, 266 318.649, 266 327.480 C 266 337.450, 265.911 337.878, 263.750 338.294 C 262.512 338.533, 263.975 338.753, 267 338.785 C 270.025 338.816, 271.938 338.615, 271.250 338.338 C 270.413 338, 270.001 335.467, 270.004 330.667 C 270.008 322.075, 272.402 317, 276.450 317 C 280.011 317, 281 319.686, 281 329.361 C 281 336.608, 280.743 337.920, 279.250 338.311 C 278.288 338.562, 279.975 338.768, 283 338.768 C 286.025 338.768, 287.712 338.562, 286.750 338.311 C 285.251 337.919, 285 336.594, 285 329.062 C 285 318.473, 283.148 315, 277.500 315 C 275.067 315, 273.576 315.724, 272.073 317.635 L 270 320.270 270 317.635 C 270 315.251, 269.642 315.003, 266.250 315.030 C 263.217 315.055, 262.835 315.256, 264.250 316.080 M 296.659 317.054 C 293.479 319.555, 291.516 325.605, 292.383 330.228 C 293.326 335.257, 298.140 339.455, 302.962 339.455 C 307.047 339.455, 311 336.875, 311 334.210 C 311 333.275, 310.237 333.700, 308.927 335.365 C 307.414 337.290, 305.937 338, 303.450 338 C 299.653 338, 297.673 335.786, 296.519 330.250 L 295.841 327 303.421 327 L 311 327 311 323.174 C 311 315.846, 302.698 312.303, 296.659 317.054 M 318.250 316.080 C 319.739 316.947, 320 318.648, 320 327.476 C 320 336.518, 319.775 337.912, 318.250 338.311 C 317.288 338.562, 319.200 338.759, 322.500 338.748 C 325.800 338.737, 327.439 338.526, 326.143 338.280 C 323.857 337.846, 323.793 337.569, 324.045 329.166 C 324.481 314.649, 324.574 314.995, 320.250 315.030 C 317.217 315.055, 316.835 315.256, 318.250 316.080 M 326.494 317.006 C 325.496 318.110, 324.912 319.245, 325.197 319.530 C 325.482 319.815, 326.284 319.362, 326.980 318.524 C 329.059 316.019, 330.850 316.754, 331.187 320.250 C 331.548 323.995, 334.315 324.798, 334.813 321.302 C 335.604 315.740, 330.177 312.937, 326.494 317.006 M 299.092 318.131 C 297.942 319.366, 297 321.642, 297 323.189 C 297 325.890, 297.192 326, 301.933 326 C 307.629 326, 309.069 324.009, 306.803 319.266 C 305.108 315.718, 301.795 315.231, 299.092 318.131 M 212.655 329.829 C 210.406 332.314, 210.571 335.700, 213.007 337.004 C 214.651 337.884, 215.463 337.628, 217.507 335.584 C 218.878 334.213, 220 331.945, 220 330.545 C 220 328.415, 219.537 328, 217.155 328 C 215.590 328, 213.565 328.823, 212.655 329.829" stroke="none" fill="#fbfbfb" fill-rule="evenodd"/></svg>